<svg xmlns="http://www.w3.org/2000/svg" viewBox="0 0 400 300" role="img" aria-hidden="true"><rect width="400" height="300" rx="28" fill="#FBFAF7"/><path d="M54 62c56-10 101 5 146 40 45-35 90-50 146-40v170c-56-10-101 5-146 40-45-35-90-50-146-40V62Z" fill="#fff" fill="none" stroke="#0B1220" stroke-width="12" stroke-linecap="round" stroke-linejoin="round"/><path d="M200 102v170M91 120c41-8 67 0 86 18M309 111c-38 10-63 28-83 56" fill="none" stroke="#0B1220" stroke-width="12" stroke-linecap="round" stroke-linejoin="round"/><circle cx="286" cy="109" r="17" fill="#EEA632" fill="none" stroke="#0B1220" stroke-width="12" stroke-linecap="round" stroke-linejoin="round"/><path d="M177 138c-9 50-34 83-70 95" fill="none" stroke="#0B1220" stroke-width="12" stroke-linecap="round" stroke-linejoin="round"/></svg>